<?xml version="1.0" standalone="no"?><!DOCTYPE svg PUBLIC "-//W3C//DTD SVG 1.1//EN" "http://www.w3.org/Graphics/SVG/1.1/DTD/svg11.dtd"><svg t="1561018701850" class="icon" viewBox="0 0 1024 1024" version="1.1" xmlns="http://www.w3.org/2000/svg" p-id="1978" xmlns:xlink="http://www.w3.org/1999/xlink" width="200" height="200"><defs><style type="text/css"></style></defs><path d="M610.133333 659.754667c-82.56 71.296-57.6-53.76-53.845333-71.296 3.797333-17.493333 57.514667-125.098667 18.176-143.146667-39.424-18.133333-160.768 71.253333-160.768 71.253333s-19.968 14.421333-18.133333 18.176c13.184 23.125333 71.296-18.133333 71.296-18.133333s20.010667-16.213333 18.133333 0a1374.464 1374.464 0 0 0-35.626667 214.442667c8.746667 47.530667 83.84 27.562667 142.592-35.626667 58.752-63.146667 18.133333-35.669333 18.133334-35.669333zM562.218667 390.826667a62.506667 62.506667 0 0 0 59.136-90.709334 62.549333 62.549333 0 1 0-59.136 90.752z" p-id="1979"></path><path d="M855.893333 829.269333a463.658667 463.658667 0 0 0 125.056-317.098666c0-258.986667-209.92-468.949333-468.949333-468.949334S43.050667 253.226667 43.050667 512.170667c0 259.029333 209.92 468.992 468.949333 468.992h437.76a31.317333 31.317333 0 0 0 20.608-55.04l-114.517333-96.853334zM512 918.698667c-224.469333 0-406.528-182.016-406.528-406.528a406.4 406.4 0 0 1 406.442667-406.4 406.4 406.4 0 0 1 406.4 406.4 402.474667 402.474667 0 0 1-128.768 296.448 31.061333 31.061333 0 0 0-9.130667 24.576 31.573333 31.573333 0 0 0 12.928 22.954666l74.410667 62.549334H512z" p-id="1980"></path></svg>