<?xml version="1.0" standalone="no"?><!DOCTYPE svg PUBLIC "-//W3C//DTD SVG 1.1//EN" "http://www.w3.org/Graphics/SVG/1.1/DTD/svg11.dtd"><svg t="1561021272681" class="icon" viewBox="0 0 1024 1024" version="1.1" xmlns="http://www.w3.org/2000/svg" p-id="3531" xmlns:xlink="http://www.w3.org/1999/xlink" width="200" height="200"><defs><style type="text/css"></style></defs><path d="M542.976 438.016q-12.032 12.032-28.48 12.032t-28.48-12.032L332.032 284.992Q320 272.96 320 256t12.032-28.992l153.984-153.024q12.032-12.032 28.48-12.032t28.48 12.032l153.024 153.024q12.032 12.032 12.032 28.992t-12.032 28.992z m165.056-223.04L555.008 61.952Q537.984 44.928 513.984 44.928t-40 17.024L320 214.976q-17.024 17.024-17.024 41.024T320 297.024l153.984 153.024q16 17.024 40 17.024t41.024-17.024l153.024-153.024q17.024-17.024 17.024-41.024t-17.024-41.024z m-417.024 475.008q-12.032 12.032-28.48 12.032t-28.48-12.032L80.064 536q-11.008-11.008-11.008-28.032t11.008-28.992l153.984-153.024q12.032-12.032 28.48-12.032t28.48 12.032l153.984 153.024q12.032 12.032 12.032 28.992t-12.032 28.032z m166.016-222.976L303.04 313.984q-17.024-17.024-40.512-17.024t-40.512 17.024L68.032 467.008q-16 17.024-16 41.024t16 40l153.984 153.984q17.024 17.024 40.512 17.024t40.512-17.024l153.984-153.984q17.024-16 17.024-40t-17.024-41.024z m337.984 222.976q-12.032 12.032-28.992 12.032t-28.992-12.032L584 536q-12.032-11.008-12.032-28.032t12.032-28.992l153.024-153.024q12.032-12.032 28.992-12.032t28.992 12.032l153.024 153.024q12.032 12.032 12.032 28.992t-12.032 28.032zM960 467.008l-153.024-153.024q-17.024-17.024-41.024-17.024t-41.024 17.024L571.904 467.008q-17.024 17.024-17.024 41.024t17.024 40l153.024 153.984q17.024 17.024 41.024 17.024t41.024-17.024L960 548.032q17.024-16 17.024-40T960 467.008z m-372.992 422.976q-41.984 24-92.032 17.472t-86.016-42.496q-44.032-44.032-44.032-105.472t44.032-105.024 105.472-43.52 105.472 43.008q46.016 46.976 43.008 112l17.024 3.008q4.032-75.008-48-126.976-49.024-48-118.016-48t-117.504 48.512-48.512 116.992 49.024 117.504q44.032 44.032 105.472 48.512t110.528-32.512z m33.024-24.96l-14.016 12.032 22.976 3.008q1.024-1.984 3.008-3.008 19.008-19.008 30.976-43.008l-17.984-3.008q-9.984 19.008-25.024 33.984z m57.984-81.024l-16-1.984q-3.008 17.984-9.984 33.984l17.024 3.008q6.976-17.024 9.024-35.008z" p-id="3532"></path></svg>