<?xml version="1.0" standalone="no"?><!DOCTYPE svg PUBLIC "-//W3C//DTD SVG 1.1//EN" "http://www.w3.org/Graphics/SVG/1.1/DTD/svg11.dtd"><svg t="1555398147675" class="icon" style="" viewBox="0 0 1024 1024" version="1.1" xmlns="http://www.w3.org/2000/svg" p-id="2971" xmlns:xlink="http://www.w3.org/1999/xlink" width="200" height="200"><defs><style type="text/css"></style></defs><path d="M84.48 437.72v524.8H64V1024h83.22V483.21L473.679 369.9v647.76h232.92V956.1h-48.01V355.88l-122.84-72.35-135.09 46.75v-87.71L727.08 94.72v925.38h232.96V958.15h-47.97V76.169L787.18 0 340.52 205.43v145.29l-256.04 87z m100.51 80.66v94.13l241.27-69.12V436.5l-241.27 81.88z m0 133.12v92.79l241.27-44.82v-108.7L184.99 651.5z m0 135.09v92.199l241.27-20.52V749.41l-241.27 37.18z m-0.67 136.9v92.2h241.31V906.87l-241.31 16.62z" p-id="2972"></path></svg>
