<?xml version="1.0" standalone="no"?><!DOCTYPE svg PUBLIC "-//W3C//DTD SVG 1.1//EN" "http://www.w3.org/Graphics/SVG/1.1/DTD/svg11.dtd"><svg t="1561022635757" class="icon" viewBox="0 0 1024 1024" version="1.1" xmlns="http://www.w3.org/2000/svg" p-id="2213" xmlns:xlink="http://www.w3.org/1999/xlink" width="200" height="200"><defs><style type="text/css"></style></defs><path d="M512 1024C175.591619 1024 97.52381 851.334095 97.52381 851.334095v-292.327619c0 118.345143 185.539048 214.308571 414.47619 214.308572 228.839619 0 414.47619-95.963429 414.47619-214.308572v292.327619S850.505143 1024 512 1024z m0-304.469333c-336.408381 0-414.47619-172.665905-414.47619-172.665905V254.537143c0 118.345143 185.539048 214.308571 414.47619 214.308571 228.839619 0 414.47619-95.963429 414.47619-214.308571v292.327619s-75.971048 172.665905-414.47619 172.665905z m0-290.816C283.062857 428.714667 97.52381 332.702476 97.52381 214.357333 97.52381 95.963429 283.062857 0 512 0 740.839619 0 926.47619 95.963429 926.47619 214.357333c0 118.345143-185.636571 214.357333-414.47619 214.357334z" fill="#31BD16" p-id="2214"></path></svg>