<?xml version="1.0" standalone="no"?><!DOCTYPE svg PUBLIC "-//W3C//DTD SVG 1.1//EN" "http://www.w3.org/Graphics/SVG/1.1/DTD/svg11.dtd"><svg t="1560997463995" class="icon" style="" viewBox="0 0 1024 1024" version="1.1" xmlns="http://www.w3.org/2000/svg" p-id="2025" xmlns:xlink="http://www.w3.org/1999/xlink" width="200" height="200"><defs><style type="text/css"></style></defs><path d="M997.184 331.904l-448-320a64 64 0 0 0-74.368 0l-448 320A64 64 0 0 0 0 384v576a64 64 0 0 0 64 64h896a64 64 0 0 0 64-64V384a64 64 0 0 0-26.816-52.096zM448 896v-256h128v256z m448 0h-192V576a64 64 0 0 0-64-64H384a64 64 0 0 0-64 64v320H128V416.896l384-274.304 384 274.368z" p-id="2026"></path></svg>