<?xml version="1.0" standalone="no"?><!DOCTYPE svg PUBLIC "-//W3C//DTD SVG 1.1//EN" "http://www.w3.org/Graphics/SVG/1.1/DTD/svg11.dtd"><svg t="1561022625343" class="icon" viewBox="0 0 1024 1024" version="1.1" xmlns="http://www.w3.org/2000/svg" p-id="2100" xmlns:xlink="http://www.w3.org/1999/xlink" width="200" height="200"><defs><style type="text/css"></style></defs><path d="M1020.992895 650.753229c1.449668 10.659321 1.023295 21.48919-1.108569 32.063237a191.953046 191.953046 0 0 1-29.675549 72.48338 67.366906 67.366906 0 0 1-23.876878 22.000838 52.87023 52.87023 0 0 1-23.024133 6.566141 63.785375 63.785375 0 0 1-22.000837-4.349003 239.365704 239.365704 0 0 0-27.543685-5.969219 127.059102 127.059102 0 0 0-33.427629-1.193844 161.510026 161.510026 0 0 0-34.024552 7.163063 66.514161 66.514161 0 0 0-28.993352 18.67513 108.383972 108.383972 0 0 0-30.698843 62.591531c-3.155159 22.768309 0 45.877716 9.294927 66.940533a41.784537 41.784537 0 0 1-3.240433 44.001676 81.43721 81.43721 0 0 1-20.721719 18.163482c-9.977124 6.480867-20.465896 12.194263-31.295766 17.054913-11.426792 5.116474-23.450505 9.209653-35.644768 12.023714a144.96676 144.96676 0 0 1-33.001257 4.349002 27.970057 27.970057 0 0 1-18.589855-8.015809 41.358164 41.358164 0 0 1-11.938439-16.457991h-1.193844a136.098206 136.098206 0 0 0-41.10234-58.839449 101.050359 101.050359 0 0 0-67.025808-24.388526c-24.729624 0-48.606502 8.698006-67.366906 24.729624a133.881067 133.881067 0 0 0-42.296185 57.645606 37.094436 37.094436 0 0 1-16.457991 19.272051 48.9476 48.9476 0 0 1-23.962152 6.054494 125.012512 125.012512 0 0 1-34.536199-5.542846 329.500919 329.500919 0 0 1-39.055751-13.643931 185.13108 185.13108 0 0 1-34.621473-19.272051 94.313669 94.313669 0 0 1-23.024133-22.000838 33.25708 33.25708 0 0 1-6.054494-18.078208 66.343612 66.343612 0 0 1 7.930535-29.163901 110.004189 110.004189 0 0 0 9.380202-57.730881 100.623987 100.623987 0 0 0-27.970058-59.948019 71.886458 71.886458 0 0 0-36.923886-21.233366 153.664766 153.664766 0 0 0-41.699262-3.837356c-15.946344 0.852746-31.636864 3.666806-46.901011 8.612731a45.195519 45.195519 0 0 1-30.613569-2.217138 48.00958 48.00958 0 0 1-22.427211-20.210072 228.535834 228.535834 0 0 1-31.551589-74.785794 89.964666 89.964666 0 0 1-2.217138-33.512904c2.302413-16.031618 9.636026-26.349841 22.086112-30.784118 22.938858-9.550751 43.234204-24.388526 59.180548-43.490028 16.884364-18.334031 26.349841-42.466733 26.435115-67.537455a95.507513 95.507513 0 0 0-26.435115-67.025808 163.215517 163.215517 0 0 0-59.265822-41.528713 30.016647 30.016647 0 0 1-16.457991-16.031619A56.110664 56.110664 0 0 1 0.768 358.432021a133.028321 133.028321 0 0 1 4.434277-32.063237 216.51212 216.51212 0 0 1 27.970058-64.297022 67.196357 67.196357 0 0 1 20.295346-20.210072 25.155997 25.155997 0 0 1 17.054913-4.263728c6.139769 0.852746 12.194263 2.217139 18.163482 4.263728 21.745014 8.612731 45.366069 11.426792 68.560751 8.015809 23.876878-3.410983 45.962991-14.326127 63.103178-31.295765a76.661834 76.661834 0 0 0 19.101502-32.404335c7.418887-23.279956 10.232948-47.753756 8.015809-72.142282a478.646133 478.646133 0 0 0-2.728786-22.000837 115.291212 115.291212 0 0 1-4.263728-15.093598 24.047427 24.047427 0 0 1 1.705491-15.349422c5.116474-11.085693 13.302832-20.465896 23.53578-26.946762A184.19306 184.19306 0 0 1 302.63996 15.45772c12.364812-4.945925 25.241271-8.78328 38.373554-11.59734 9.7213-2.217139 19.61315-3.410983 29.590274-3.837356 8.527456-0.341098 16.713815 3.069884 22.427211 9.380202 5.116474 5.542847 9.039104 12.108988 11.512066 19.272052 8.527456 20.465896 22.171387 38.373554 39.567398 52.188034 18.248757 14.923049 41.187615 22.938858 64.80867 22.512485 24.303251 0.341098 48.180129-7.163063 67.963828-21.489191 19.101503-13.388107 33.683453-32.404335 41.613987-54.490447a74.444695 74.444695 0 0 1 13.643931-17.907658 27.117312 27.117312 0 0 1 19.186777-9.380202c11.256243 0 22.512485 1.534942 33.512904 4.263728 12.194263 2.98461 24.132702 7.077789 35.730043 12.108988 11.597341 5.116474 22.427211 11.682615 32.233785 19.783699 9.124378 7.418887 17.054913 16.372716 23.194682 26.435115a24.900173 24.900173 0 0 1 3.410983 19.186777 63.103178 63.103178 0 0 1-4.434278 14.837775c-9.380202 20.977543-12.450086 44.342774-8.698005 67.025808 3.666806 23.450505 14.837774 45.02497 31.892687 61.568236 17.225462 17.396011 40.334869 27.799508 64.808669 29.078626 24.388526 2.04659 48.9476-2.302413 71.204262-12.620635a36.497514 36.497514 0 0 1 42.807831 5.542846c12.876459 13.302832 22.768309 29.163901 28.993353 46.645188 8.356907 20.295346 14.070303 41.528713 17.054913 63.188452a38.714652 38.714652 0 0 1-5.96922 29.163901 41.443439 41.443439 0 0 1-16.884364 14.070304 128.764593 128.764593 0 0 0-58.157253 42.296184 107.190128 107.190128 0 0 0-23.876878 68.646025 108.298697 108.298697 0 0 0 20.039522 65.235042c13.388107 18.504581 32.063236 32.404335 53.552427 40.079045 4.604827 2.558237 9.039104 5.457572 13.217558 8.698006 8.015809 6.480867 13.729205 15.349422 16.457991 25.326546l-0.341098 0.085274z m-510.112447 98.918496a236.210545 236.210545 0 0 0 169.099462-70.436791 240.644822 240.644822 0 0 0 50.99419-262.134013 240.730097 240.730097 0 0 0-50.99419-75.809088 239.536253 239.536253 0 0 0-169.355286-69.754594 231.349895 231.349895 0 0 0-92.693452 18.760404c-56.963409 24.217976-102.329478 69.754594-126.46218 126.888553a240.644822 240.644822 0 0 0 126.718003 313.810399c29.249176 12.535361 60.886039 18.930953 92.693453 18.67513z" p-id="2101"></path></svg>