<?xml version="1.0" standalone="no"?><!DOCTYPE svg PUBLIC "-//W3C//DTD SVG 1.1//EN" "http://www.w3.org/Graphics/SVG/1.1/DTD/svg11.dtd"><svg t="1557716860257" class="icon" style="" viewBox="0 0 1024 1024" version="1.1" xmlns="http://www.w3.org/2000/svg" p-id="5783" xmlns:xlink="http://www.w3.org/1999/xlink" width="200" height="200"><defs><style type="text/css"></style></defs><path d="M800 320h-64v-32c0-123.776-100.29056-224-224-224-123.71456 0-224 100.224-224 224v32h-64c-70.656 0-128 57.344-128 128v384c0 70.65088 57.344 128 128 128h576c70.656 0 128-57.34912 128-128v-384c0-70.71744-57.344-128-128-128z m-448-32C352 199.61344 423.61344 128 512 128c88.39168 0 160 71.61344 160 160v32h-320v-32z m512 544c0.03072 35.31776-28.57984 63.96928-63.8976 64H224c-35.39456 0-64-28.61056-64-64v-384c0-35.38944 28.60544-64 64-64h64v96c0 17.664 14.336 32 32 32s32-14.336 32-32V384h320v96c0 17.664 14.336 32 32 32s32-14.336 32-32V384h64c35.31776-0.0256 63.96928 28.57984 64 63.8976v384.1024z" p-id="5784"></path><path d="M437.12 562.304a30.65856 30.65856 0 0 0-43.37152-0.08704l-0.08704 0.08704-100.54144 100.60288c-0.512 0.19968-0.768 0.83968-1.34144 1.09056-2.75968 1.46944-5.57056 2.94912-7.94112 5.30944-0.70144 0.71168-0.96256 1.60256-1.60256 2.37056-2.10432 2.24256-3.52256 4.55168-4.85376 7.30112-0.26624 0.56832-0.38912 1.20832-0.57856 1.84832-1.54112 3.77856-3.57888 7.36256-3.57888 11.648 0 12.8 7.86944 23.296 18.74944 28.416l101.68832 101.76a30.6688 30.6688 0 0 0 43.37152 0.09216l0.08704-0.09216a30.74048 30.74048 0 0 0 0.04096-43.47904l-0.04096-0.04096-86.02624-86.016-0.84992-0.41984 86.87616-86.87616c12.03712-11.97056 12.03712-31.48288 0-43.51488zM747.19744 680.832c-0.18944-0.64-0.31744-1.28-0.57856-1.84832-1.33632-2.74944-2.74944-5.05344-4.85376-7.30112-0.64-0.76288-0.90624-1.65888-1.60256-2.37056-2.37056-2.36032-5.18144-3.84-7.94112-5.30944-0.56832-0.25088-0.82944-0.89088-1.34144-1.09056l-100.54144-100.60288-0.08704-0.08704a30.65856 30.65856 0 0 0-43.37152 0.08704c-12.03712 12.032-12.03712 31.54432 0 43.52l86.87616 86.87616-0.84992 0.41984-86.02624 86.016-0.04096 0.04096a30.74048 30.74048 0 0 0 0.128 43.5712 30.6688 30.6688 0 0 0 43.37152-0.09216l101.68832-101.76c10.88-5.12 18.74944-15.616 18.74944-28.416 0-4.29056-2.04288-7.87456-3.57888-11.65312z" p-id="5785"></path></svg>